<mxfile host="Electron" agent="Mozilla/5.0 (Windows NT 10.0; Win64; x64) AppleWebKit/537.36 (KHTML, like Gecko) draw.io/28.0.6 Chrome/138.0.7204.100 Electron/37.2.3 Safari/537.36" version="28.0.6" pages="2">
  <diagram name="overview" id="v-fH6MzNMlpos3FZSHfg">
    <mxGraphModel dx="1678" dy="989" grid="1" gridSize="10" guides="1" tooltips="1" connect="1" arrows="1" fold="1" page="1" pageScale="1" pageWidth="827" pageHeight="1169" math="0" shadow="0">
      <root>
        <mxCell id="0" />
        <mxCell id="1" parent="0" />
        <mxCell id="c-z1gGyClp4EE-uFw3N3-7" value="" style="rounded=1;whiteSpace=wrap;html=1;dashed=1;" vertex="1" parent="1">
          <mxGeometry x="110" y="390" width="629" height="540" as="geometry" />
        </mxCell>
        <mxCell id="c-z1gGyClp4EE-uFw3N3-1" value="" style="rounded=1;whiteSpace=wrap;html=1;dashed=1;" vertex="1" parent="1">
          <mxGeometry x="319" y="110" width="210" height="180" as="geometry" />
        </mxCell>
        <mxCell id="c-z1gGyClp4EE-uFw3N3-2" value="API Management" style="image;aspect=fixed;html=1;points=[];align=center;fontSize=12;image=img/lib/azure2/app_services/API_Management_Services.svg;imageBackground=default;" vertex="1" parent="1">
          <mxGeometry x="390" y="80" width="65" height="60" as="geometry" />
        </mxCell>
        <mxCell id="c-z1gGyClp4EE-uFw3N3-3" value="Protected API" style="shape=image;verticalLabelPosition=bottom;labelBackgroundColor=default;verticalAlign=top;aspect=fixed;imageAspect=0;image=data:image/svg+xml,PHN2ZyB4bWxucz0iaHR0cDovL3d3dy53My5vcmcvMjAwMC9zdmciIHZpZXdCb3g9IjAgMCA1MCA1MCI+JiN4YTsgICAgPHBhdGggZmlsbD0iIzU3YTMwMCIgZD0iTTAgMjAuODRoMTkuNTV2OC4zMkgweiIvPiYjeGE7ICAgIDxwYXRoIGZpbGw9IiM1OWI0ZDkiIGQ9Ik00MS42OCAyMC44NGgxMC4yNnY4LjMySDQxLjY4eiIvPiYjeGE7ICAgIDxjaXJjbGUgZmlsbD0iIzU3YTMwMCIgcj0iOS40NiIgY3k9IjI1IiBjeD0iMjAuMTIiLz4mI3hhOyAgICA8cGF0aCBmaWxsPSIjNTliNGQ5IiBkPSJNMjAuMTIuNDh2MTAuOTZhMSAxIDAgMCAxIDAgMjcuMTR2MTAuOTZhMSAxIDAgMCAwIDAtNDkuMDVaIi8+JiN4YTs8L3N2Zz4=;imageBackground=none;fontStyle=1" vertex="1" parent="1">
          <mxGeometry x="399" y="190" width="50" height="50" as="geometry" />
        </mxCell>
        <mxCell id="c-z1gGyClp4EE-uFw3N3-4" value="Microsoft Entra ID" style="image;aspect=fixed;html=1;points=[];align=center;fontSize=12;image=img/lib/azure2/other/Entra_Identity.svg;" vertex="1" parent="1">
          <mxGeometry x="390" y="350" width="68" height="60.440000000000005" as="geometry" />
        </mxCell>
        <mxCell id="c-z1gGyClp4EE-uFw3N3-19" value="1b. retrieves&amp;nbsp;&lt;div&gt;token for&lt;/div&gt;" style="rounded=0;orthogonalLoop=1;jettySize=auto;html=1;" edge="1" parent="1" source="c-z1gGyClp4EE-uFw3N3-6" target="c-z1gGyClp4EE-uFw3N3-8">
          <mxGeometry relative="1" as="geometry" />
        </mxCell>
        <mxCell id="c-z1gGyClp4EE-uFw3N3-20" value="1a. retrieves token&lt;div&gt;using client&amp;nbsp;&lt;/div&gt;&lt;div&gt;credentials from&lt;/div&gt;" style="rounded=0;orthogonalLoop=1;jettySize=auto;html=1;" edge="1" parent="1" source="c-z1gGyClp4EE-uFw3N3-6" target="c-z1gGyClp4EE-uFw3N3-9">
          <mxGeometry relative="1" as="geometry" />
        </mxCell>
        <mxCell id="c-z1gGyClp4EE-uFw3N3-21" value="2. calls API&lt;div&gt;with Bearer token&lt;/div&gt;" style="edgeStyle=orthogonalEdgeStyle;rounded=0;orthogonalLoop=1;jettySize=auto;html=1;" edge="1" parent="1" source="c-z1gGyClp4EE-uFw3N3-6" target="c-z1gGyClp4EE-uFw3N3-3">
          <mxGeometry x="-0.3454" y="25" relative="1" as="geometry">
            <mxPoint as="offset" />
          </mxGeometry>
        </mxCell>
        <mxCell id="c-z1gGyClp4EE-uFw3N3-6" value="Valid Client" style="verticalLabelPosition=bottom;html=1;verticalAlign=top;align=center;strokeColor=none;fillColor=#00BEF2;shape=mxgraph.azure.user;fontStyle=1;labelBackgroundColor=default;" vertex="1" parent="1">
          <mxGeometry x="130" y="190" width="47.5" height="50" as="geometry" />
        </mxCell>
        <mxCell id="c-z1gGyClp4EE-uFw3N3-8" value="&lt;div&gt;- Name:&amp;nbsp;&lt;i&gt;appreg-oauth-sdc-apim-wiyuo&lt;/i&gt;&lt;/div&gt;- Application (client) ID:&amp;nbsp;&lt;div&gt;&amp;nbsp; &lt;i&gt;d03a9bf4-b880-4793-926f-95bb5ce74a77&lt;/i&gt;&lt;/div&gt;&lt;div&gt;- Application ID URI:&amp;nbsp;&lt;i&gt;api://apim-oauth-sdc-wiyuo&lt;/i&gt;&lt;/div&gt;&lt;div&gt;&lt;br&gt;&lt;/div&gt;&lt;div&gt;- App roles:&lt;/div&gt;&lt;div&gt;&lt;ul&gt;&lt;li&gt;Sample.Read&lt;/li&gt;&lt;li&gt;Sample.Write&lt;/li&gt;&lt;li&gt;Sample.Delete&lt;/li&gt;&lt;/ul&gt;&lt;/div&gt;" style="rounded=1;whiteSpace=wrap;html=1;fillColor=#dae8fc;strokeColor=#6c8ebf;align=left;verticalAlign=bottom;" vertex="1" parent="1">
          <mxGeometry x="439.5" y="460" width="270" height="220" as="geometry" />
        </mxCell>
        <mxCell id="c-z1gGyClp4EE-uFw3N3-5" value="API Management&lt;div&gt;&lt;span style=&quot;font-weight: normal;&quot;&gt;(app registration)&lt;/span&gt;&lt;/div&gt;" style="image;sketch=0;aspect=fixed;html=1;points=[];align=center;fontSize=12;image=img/lib/mscae/App_Registrations.svg;fontStyle=1;labelBackgroundColor=none;" vertex="1" parent="1">
          <mxGeometry x="549.5" y="430" width="50" height="50" as="geometry" />
        </mxCell>
        <mxCell id="c-z1gGyClp4EE-uFw3N3-9" value="&lt;div&gt;- Name:&amp;nbsp;&lt;span style=&quot;background-color: transparent;&quot;&gt;&lt;i&gt;appreg-oauth-sdc-validclient-wiyuo&lt;/i&gt;&lt;/span&gt;&lt;/div&gt;- Application (client) ID:&amp;nbsp;&lt;div&gt;&amp;nbsp;&amp;nbsp;&lt;span style=&quot;background-color: transparent;&quot;&gt;&lt;i&gt;f2b24498-3c66-46cd-9a61-92acb473b959&lt;/i&gt;&lt;/span&gt;&lt;/div&gt;&lt;div&gt;- Client secret: **********&lt;/div&gt;&lt;div&gt;&lt;br&gt;&lt;/div&gt;&lt;div&gt;- API permissions:&lt;/div&gt;&lt;div&gt;&lt;ul&gt;&lt;li&gt;Sample.Read&lt;/li&gt;&lt;li&gt;Sample.Write&lt;/li&gt;&lt;/ul&gt;&lt;div&gt;&lt;br&gt;&lt;/div&gt;&lt;/div&gt;" style="rounded=1;whiteSpace=wrap;html=1;fillColor=#dae8fc;strokeColor=#6c8ebf;align=left;verticalAlign=bottom;" vertex="1" parent="1">
          <mxGeometry x="138.5" y="460" width="270" height="220" as="geometry" />
        </mxCell>
        <mxCell id="c-z1gGyClp4EE-uFw3N3-10" value="Valid Client&lt;div&gt;&lt;span style=&quot;font-weight: normal;&quot;&gt;(app registration)&lt;/span&gt;&lt;/div&gt;" style="image;sketch=0;aspect=fixed;html=1;points=[];align=center;fontSize=12;image=img/lib/mscae/App_Registrations.svg;fontStyle=1;labelBackgroundColor=none;" vertex="1" parent="1">
          <mxGeometry x="248.5" y="430" width="50" height="50" as="geometry" />
        </mxCell>
        <mxCell id="c-z1gGyClp4EE-uFw3N3-11" value="&lt;div&gt;- Name:&amp;nbsp;&lt;span style=&quot;background-color: transparent;&quot;&gt;&lt;i&gt;appreg-oauth-sdc-invalidclient-wiyuo&lt;/i&gt;&lt;/span&gt;&lt;/div&gt;- Application (client) ID:&amp;nbsp;&lt;div&gt;&amp;nbsp;&amp;nbsp;&lt;span style=&quot;background-color: transparent;&quot;&gt;&lt;i&gt;c28d676a-f26e-4a85-909d-10385b857415&lt;/i&gt;&lt;/span&gt;&lt;/div&gt;&lt;div&gt;- Client secret: **********&lt;/div&gt;&lt;div&gt;&lt;br&gt;&lt;/div&gt;&lt;div&gt;- API permissions: &lt;i&gt;none&lt;/i&gt;&lt;/div&gt;&lt;div&gt;&lt;i&gt;&lt;br&gt;&lt;/i&gt;&lt;/div&gt;" style="rounded=1;whiteSpace=wrap;html=1;fillColor=#dae8fc;strokeColor=#6c8ebf;align=left;verticalAlign=bottom;" vertex="1" parent="1">
          <mxGeometry x="138.5" y="730" width="270" height="170" as="geometry" />
        </mxCell>
        <mxCell id="c-z1gGyClp4EE-uFw3N3-12" value="Invalid Client&lt;div&gt;&lt;span style=&quot;font-weight: normal;&quot;&gt;(app registration)&lt;/span&gt;&lt;/div&gt;" style="image;sketch=0;aspect=fixed;html=1;points=[];align=center;fontSize=12;image=img/lib/mscae/App_Registrations.svg;fontStyle=1;labelBackgroundColor=none;" vertex="1" parent="1">
          <mxGeometry x="248.5" y="700" width="50" height="50" as="geometry" />
        </mxCell>
        <mxCell id="c-z1gGyClp4EE-uFw3N3-13" value="" style="shape=curlyBracket;whiteSpace=wrap;html=1;rounded=1;flipH=1;labelPosition=right;verticalLabelPosition=middle;align=left;verticalAlign=middle;" vertex="1" parent="1">
          <mxGeometry x="255.5" y="626" width="14.5" height="25" as="geometry" />
        </mxCell>
        <mxCell id="c-z1gGyClp4EE-uFw3N3-15" value="" style="shape=curlyBracket;whiteSpace=wrap;html=1;rounded=1;labelPosition=left;verticalLabelPosition=middle;align=right;verticalAlign=middle;" vertex="1" parent="1">
          <mxGeometry x="450" y="626" width="14.5" height="25" as="geometry" />
        </mxCell>
        <mxCell id="c-z1gGyClp4EE-uFw3N3-16" value="assigned subet of" style="edgeStyle=orthogonalEdgeStyle;rounded=0;orthogonalLoop=1;jettySize=auto;html=1;entryX=0.1;entryY=0.5;entryDx=0;entryDy=0;entryPerimeter=0;dashed=1;labelBackgroundColor=none;" edge="1" parent="1" source="c-z1gGyClp4EE-uFw3N3-13" target="c-z1gGyClp4EE-uFw3N3-15">
          <mxGeometry x="-0.1228" y="9" relative="1" as="geometry">
            <mxPoint y="1" as="offset" />
          </mxGeometry>
        </mxCell>
        <mxCell id="c-z1gGyClp4EE-uFw3N3-17" value="" style="shape=curlyBracket;whiteSpace=wrap;html=1;rounded=1;flipH=1;labelPosition=right;verticalLabelPosition=middle;align=left;verticalAlign=middle;" vertex="1" parent="1">
          <mxGeometry x="564.5" y="624" width="15.5" height="44" as="geometry" />
        </mxCell>
        <mxCell id="c-z1gGyClp4EE-uFw3N3-18" value="requires" style="edgeStyle=orthogonalEdgeStyle;rounded=0;orthogonalLoop=1;jettySize=auto;html=1;entryX=0.1;entryY=0.5;entryDx=0;entryDy=0;entryPerimeter=0;dashed=1;" edge="1" parent="1" source="c-z1gGyClp4EE-uFw3N3-3" target="c-z1gGyClp4EE-uFw3N3-17">
          <mxGeometry x="-0.6183" y="15" relative="1" as="geometry">
            <Array as="points">
              <mxPoint x="720" y="215" />
              <mxPoint x="720" y="646" />
            </Array>
            <mxPoint as="offset" />
          </mxGeometry>
        </mxCell>
      </root>
    </mxGraphModel>
  </diagram>
  <diagram id="cWb7C-gqZ-kzAIEl2uW0" name="sequence-diagram">
    <mxGraphModel dx="1426" dy="841" grid="1" gridSize="10" guides="1" tooltips="1" connect="1" arrows="1" fold="1" page="1" pageScale="1" pageWidth="827" pageHeight="1169" math="0" shadow="0">
      <root>
        <mxCell id="0" />
        <mxCell id="1" parent="0" />
        <mxCell id="_ulnMivtEXZtfEUEzBu7-2" value="" style="shape=umlLifeline;perimeter=lifelinePerimeter;whiteSpace=wrap;html=1;container=1;dropTarget=0;collapsible=0;recursiveResize=0;outlineConnect=0;portConstraint=eastwest;newEdgeStyle={&quot;curved&quot;:0,&quot;rounded&quot;:0};participant=umlActor;" parent="1" vertex="1">
          <mxGeometry x="70" y="80" width="20" height="340" as="geometry" />
        </mxCell>
        <mxCell id="_ulnMivtEXZtfEUEzBu7-3" value="Protected API&lt;div&gt;&lt;i&gt;(API Management)&lt;/i&gt;&lt;/div&gt;" style="shape=umlLifeline;perimeter=lifelinePerimeter;whiteSpace=wrap;html=1;container=1;dropTarget=0;collapsible=0;recursiveResize=0;outlineConnect=0;portConstraint=eastwest;newEdgeStyle={&quot;curved&quot;:0,&quot;rounded&quot;:0};" parent="1" vertex="1">
          <mxGeometry x="160" y="80" width="110" height="340" as="geometry" />
        </mxCell>
        <mxCell id="_ulnMivtEXZtfEUEzBu7-8" value="" style="html=1;points=[[0,0,0,0,5],[0,1,0,0,-5],[1,0,0,0,5],[1,1,0,0,-5]];perimeter=orthogonalPerimeter;outlineConnect=0;targetShapes=umlLifeline;portConstraint=eastwest;newEdgeStyle={&quot;curved&quot;:0,&quot;rounded&quot;:0};" parent="_ulnMivtEXZtfEUEzBu7-3" vertex="1">
          <mxGeometry x="50" y="140" width="10" height="40" as="geometry" />
        </mxCell>
        <mxCell id="_ulnMivtEXZtfEUEzBu7-9" value="GET (access token)" style="html=1;verticalAlign=bottom;endArrow=block;curved=0;rounded=0;entryX=0;entryY=0;entryDx=0;entryDy=5;" parent="_ulnMivtEXZtfEUEzBu7-3" target="_ulnMivtEXZtfEUEzBu7-8" edge="1">
          <mxGeometry relative="1" as="geometry">
            <mxPoint x="-80.07142857142856" y="145" as="sourcePoint" />
          </mxGeometry>
        </mxCell>
        <mxCell id="_ulnMivtEXZtfEUEzBu7-10" value="200 OK" style="html=1;verticalAlign=bottom;endArrow=open;dashed=1;endSize=8;curved=0;rounded=0;exitX=0;exitY=1;exitDx=0;exitDy=-5;" parent="_ulnMivtEXZtfEUEzBu7-3" source="_ulnMivtEXZtfEUEzBu7-8" edge="1">
          <mxGeometry relative="1" as="geometry">
            <mxPoint x="-80.07142857142856" y="175" as="targetPoint" />
          </mxGeometry>
        </mxCell>
        <mxCell id="_ulnMivtEXZtfEUEzBu7-11" value="" style="html=1;points=[[0,0,0,0,5],[0,1,0,0,-5],[1,0,0,0,5],[1,1,0,0,-5]];perimeter=orthogonalPerimeter;outlineConnect=0;targetShapes=umlLifeline;portConstraint=eastwest;newEdgeStyle={&quot;curved&quot;:0,&quot;rounded&quot;:0};" parent="_ulnMivtEXZtfEUEzBu7-3" vertex="1">
          <mxGeometry x="50" y="210" width="10" height="40" as="geometry" />
        </mxCell>
        <mxCell id="_ulnMivtEXZtfEUEzBu7-12" value="POST (access token)" style="html=1;verticalAlign=bottom;endArrow=block;curved=0;rounded=0;entryX=0;entryY=0;entryDx=0;entryDy=5;" parent="_ulnMivtEXZtfEUEzBu7-3" target="_ulnMivtEXZtfEUEzBu7-11" edge="1">
          <mxGeometry relative="1" as="geometry">
            <mxPoint x="-80.07142857142856" y="215" as="sourcePoint" />
          </mxGeometry>
        </mxCell>
        <mxCell id="_ulnMivtEXZtfEUEzBu7-13" value="200 OK" style="html=1;verticalAlign=bottom;endArrow=open;dashed=1;endSize=8;curved=0;rounded=0;exitX=0;exitY=1;exitDx=0;exitDy=-5;" parent="_ulnMivtEXZtfEUEzBu7-3" source="_ulnMivtEXZtfEUEzBu7-11" edge="1">
          <mxGeometry relative="1" as="geometry">
            <mxPoint x="-80.07142857142856" y="245" as="targetPoint" />
          </mxGeometry>
        </mxCell>
        <mxCell id="_ulnMivtEXZtfEUEzBu7-14" value="" style="html=1;points=[[0,0,0,0,5],[0,1,0,0,-5],[1,0,0,0,5],[1,1,0,0,-5]];perimeter=orthogonalPerimeter;outlineConnect=0;targetShapes=umlLifeline;portConstraint=eastwest;newEdgeStyle={&quot;curved&quot;:0,&quot;rounded&quot;:0};" parent="_ulnMivtEXZtfEUEzBu7-3" vertex="1">
          <mxGeometry x="50" y="280" width="10" height="40" as="geometry" />
        </mxCell>
        <mxCell id="_ulnMivtEXZtfEUEzBu7-15" value="DELETE (access token)" style="html=1;verticalAlign=bottom;endArrow=block;curved=0;rounded=0;entryX=0;entryY=0;entryDx=0;entryDy=5;" parent="_ulnMivtEXZtfEUEzBu7-3" target="_ulnMivtEXZtfEUEzBu7-14" edge="1">
          <mxGeometry relative="1" as="geometry">
            <mxPoint x="-80.07142857142856" y="285" as="sourcePoint" />
          </mxGeometry>
        </mxCell>
        <mxCell id="_ulnMivtEXZtfEUEzBu7-16" value="401 Unauthorized" style="html=1;verticalAlign=bottom;endArrow=open;dashed=1;endSize=8;curved=0;rounded=0;exitX=0;exitY=1;exitDx=0;exitDy=-5;" parent="_ulnMivtEXZtfEUEzBu7-3" source="_ulnMivtEXZtfEUEzBu7-14" edge="1">
          <mxGeometry relative="1" as="geometry">
            <mxPoint x="-80.07142857142856" y="315" as="targetPoint" />
          </mxGeometry>
        </mxCell>
        <mxCell id="_ulnMivtEXZtfEUEzBu7-4" value="APIM app registration&lt;div&gt;&lt;i&gt;(Entra ID)&lt;/i&gt;&lt;/div&gt;" style="shape=umlLifeline;perimeter=lifelinePerimeter;whiteSpace=wrap;html=1;container=1;dropTarget=0;collapsible=0;recursiveResize=0;outlineConnect=0;portConstraint=eastwest;newEdgeStyle={&quot;curved&quot;:0,&quot;rounded&quot;:0};" parent="1" vertex="1">
          <mxGeometry x="284" y="80" width="130" height="340" as="geometry" />
        </mxCell>
        <mxCell id="_ulnMivtEXZtfEUEzBu7-5" value="" style="html=1;points=[[0,0,0,0,5],[0,1,0,0,-5],[1,0,0,0,5],[1,1,0,0,-5]];perimeter=orthogonalPerimeter;outlineConnect=0;targetShapes=umlLifeline;portConstraint=eastwest;newEdgeStyle={&quot;curved&quot;:0,&quot;rounded&quot;:0};" parent="_ulnMivtEXZtfEUEzBu7-4" vertex="1">
          <mxGeometry x="59.99" y="70" width="10" height="40" as="geometry" />
        </mxCell>
        <mxCell id="_ulnMivtEXZtfEUEzBu7-6" value="Get token (client id, secret, scope)" style="html=1;verticalAlign=bottom;endArrow=block;curved=0;rounded=0;entryX=0;entryY=0;entryDx=0;entryDy=5;" parent="_ulnMivtEXZtfEUEzBu7-4" target="_ulnMivtEXZtfEUEzBu7-5" edge="1">
          <mxGeometry relative="1" as="geometry">
            <mxPoint x="-203.98619047619047" y="75" as="sourcePoint" />
          </mxGeometry>
        </mxCell>
        <mxCell id="_ulnMivtEXZtfEUEzBu7-7" value="access token" style="html=1;verticalAlign=bottom;endArrow=open;dashed=1;endSize=8;curved=0;rounded=0;exitX=0;exitY=1;exitDx=0;exitDy=-5;" parent="_ulnMivtEXZtfEUEzBu7-4" source="_ulnMivtEXZtfEUEzBu7-5" edge="1">
          <mxGeometry relative="1" as="geometry">
            <mxPoint x="-203.98619047619047" y="105" as="targetPoint" />
          </mxGeometry>
        </mxCell>
      </root>
    </mxGraphModel>
  </diagram>
</mxfile>
